# xmcd CD database file
#
# Track frame offsets:
#	150
#	15615
#	33252
#	49745
#	68550
#	85632
#	101130
#
# Disc length: 1562 seconds
#
# Revision: 0
# Processed by: cddbd v1.5PL3 Copyright (c) Steve Scherf et al.
# Submitted via: CDex 1.51
#
DISCID=4b061807
DTITLE=藤圭子 - 藤圭子 歌唱集
DYEAR=1998
DGENRE=Blues
TTITLE0=京都から博多まで
TTITLE1=女のブルース
TTITLE2=新宿の女
TTITLE3=圭子の夢は夜ひらく
TTITLE4=はしご酒
TTITLE5=命預けます
TTITLE6=明日から私は
EXTD=YEAR: 1998
EXTT0=
EXTT1=
EXTT2=
EXTT3=
EXTT4=
EXTT5=
EXTT6=
PLAYORDER=
